<svg width="32" height="32" viewBox="0 0 648 648" xmlns="http://www.w3.org/2000/svg">
<path fill="#0F1021" opacity="1.000000" stroke="none" 
	d="
M133.262543,648.709717 
	C128.310745,649.000000 123.621490,649.000000 118.466118,649.000000 
	C114.281128,642.536011 114.436256,635.699585 116.268265,628.796143 
	C117.217628,625.218750 120.343407,623.915833 124.838799,623.050476 
	C121.178429,621.375305 119.202301,621.099487 117.418663,623.844238 
	C113.453819,629.945374 107.749054,630.526672 102.959747,625.061829 
	C99.941986,621.618408 96.270332,618.562500 94.907547,613.836609 
	C94.213730,611.430542 92.129631,610.752930 89.805328,610.625122 
	C84.918587,610.356384 80.338310,611.086731 75.818291,613.280212 
	C68.929710,616.623169 65.856461,615.306763 62.795563,608.200562 
	C62.408894,606.225952 62.422096,604.646790 63.108635,602.749512 
	C63.933239,601.443542 64.862373,601.324890 65.897392,601.585083 
	C72.728882,603.302124 77.306313,599.904602 77.488243,592.971313 
	C77.514244,591.980530 77.360641,590.966370 77.519234,590.001343 
	C78.429878,584.460327 75.155602,581.886963 70.444824,579.811646 
	C69.604820,577.765625 69.768509,575.962952 70.997604,574.784546 
	C74.861031,571.080261 77.345993,565.631958 83.505066,564.739990 
	C85.604012,564.435974 87.081833,563.121521 88.141548,561.291809 
	C89.819511,558.394592 92.482979,557.349548 95.700348,557.339722 
	C117.496376,557.273132 139.292389,557.242188 161.088303,557.360779 
	C163.903580,557.376099 166.320831,558.185425 167.801651,560.850159 
	C168.629471,562.339783 169.825424,563.472534 171.461761,564.088440 
	C176.822159,566.105835 181.585999,569.057129 185.714127,573.053467 
	C189.430725,576.651428 193.764511,578.864685 199.480957,578.709229 
	C202.703445,580.806335 205.600800,581.998474 209.099915,579.267822 
	C210.442261,578.815674 211.446075,578.830505 212.815048,579.243103 
	C217.664291,583.492371 217.796738,583.994019 213.477448,587.580505 
	C211.404602,589.301697 211.880142,591.810791 210.447235,594.037415 
	C209.284973,595.006287 208.264252,595.147644 206.811035,594.853760 
	C204.044434,593.160950 204.037704,589.226990 200.160568,588.737549 
	C197.204254,588.597534 194.617462,588.669861 191.641602,588.548584 
	C183.817978,589.712524 177.856506,586.834106 172.290710,581.738342 
	C170.656738,581.650818 169.411087,581.471802 167.793732,581.300293 
	C165.202820,580.793396 163.104965,581.346497 160.664062,582.144653 
	C154.039963,583.165588 154.039948,583.165588 153.580093,589.476746 
	C153.139511,595.523438 151.315308,597.300415 145.205261,597.582336 
	C142.226624,597.719788 139.220490,597.416016 136.272308,598.021240 
	C132.132370,598.871155 130.488174,601.103455 132.412811,604.743774 
	C136.805252,613.051819 133.163086,620.566833 130.922348,628.281067 
	C130.482742,629.794617 129.141266,630.613403 127.867912,631.427551 
	C126.885628,632.055603 125.608521,632.866943 126.687515,634.110718 
	C127.706055,635.284790 129.030579,634.295105 129.622406,633.417480 
	C131.850143,630.113770 134.615906,628.668884 138.867310,630.407227 
	C140.589127,632.133850 140.907944,634.046326 141.258270,636.364136 
	C141.984818,642.841980 137.290619,645.321289 133.262543,648.709717 
z"/>
<path fill="#02998E" opacity="1.000000" stroke="none" 
	d="
M648.721313,439.755676 
	C649.000000,440.750000 649.000000,441.500000 649.000000,442.625000 
	C645.602234,445.301147 644.356628,447.991455 647.053650,451.744232 
	C648.503723,453.762054 648.195923,456.251373 647.810242,458.529694 
	C647.229736,461.958435 644.908630,463.384277 641.649475,462.051819 
	C638.219360,460.649445 635.032471,460.802795 631.461182,461.536987 
	C626.252441,462.607880 620.965759,460.899994 615.646667,461.020386 
	C612.239502,461.097534 610.766846,462.054932 610.256104,465.236572 
	C609.593933,469.361786 608.904968,473.207184 611.889282,477.073242 
	C614.270081,480.157379 612.562744,484.165649 612.072754,487.670105 
	C611.830994,489.399689 609.441650,489.345551 607.793152,489.496704 
	C603.764771,489.865906 599.862671,488.732452 595.507874,488.448425 
	C594.370117,488.430634 593.629211,488.318787 592.579346,487.924164 
	C590.726013,486.822052 590.282532,485.225800 589.739441,483.662994 
	C589.382080,482.634430 589.384521,481.125031 587.864136,481.122864 
	C586.492065,481.120941 586.084229,482.400604 585.706055,483.494049 
	C585.278503,484.730103 585.190552,486.088928 584.075928,487.421082 
	C582.875000,488.206604 581.864319,488.404846 580.406860,488.426880 
	C579.183960,488.366638 578.382751,488.244690 577.281860,487.701721 
	C574.660889,484.252838 577.030579,480.283508 575.376099,476.606934 
	C580.376099,472.650818 585.595703,472.765778 590.850403,475.184021 
	C594.091614,476.675659 597.170959,477.816223 600.810608,476.439301 
	C603.027466,475.600586 603.993835,474.843292 602.188721,472.694580 
	C601.009827,471.291290 600.196167,469.846802 600.696777,467.745453 
	C601.809814,463.073792 600.746704,462.009155 595.849548,462.442200 
	C595.026367,462.515045 594.219055,462.691193 593.102051,462.251190 
	C590.605774,456.499023 586.068970,456.698242 580.953857,457.437317 
	C577.987122,457.693573 575.394226,457.694397 572.432129,457.238556 
	C571.822144,457.056366 571.588013,456.961334 571.038147,456.666687 
	C568.976501,453.647156 566.710815,451.827545 563.128540,452.348358 
	C560.653381,452.708191 558.508911,450.528473 555.626465,451.475372 
	C554.839050,451.740509 554.369751,451.822266 553.527344,451.850006 
	C552.426208,451.771881 551.736267,451.485352 550.638367,451.298492 
	C549.781738,451.067139 549.319031,450.858734 548.575256,450.361450 
	C547.036682,448.578857 545.737854,447.039978 545.031616,445.186523 
	C543.689026,441.663269 540.987061,440.392303 537.481934,439.772522 
	C530.952576,438.617981 530.514648,438.019806 529.343872,431.256989 
	C529.088684,429.783142 528.616943,428.387115 528.013306,426.623108 
	C527.512573,422.845825 528.200745,420.109070 532.374084,420.211060 
	C536.036072,420.300476 537.828979,422.802460 537.051025,426.975250 
	C536.692810,428.896912 537.312744,429.977753 538.853210,430.472321 
	C545.408630,432.576813 551.691650,435.336334 558.574036,430.284698 
	C564.428650,425.987427 570.356384,428.076477 573.470947,434.494507 
	C573.922180,434.890594 574.095398,435.053619 574.491821,435.487671 
	C577.049683,440.041351 579.035889,437.748108 581.325928,435.246368 
	C582.868530,434.534393 584.207703,434.287476 585.498779,434.448059 
	C589.639343,434.962982 591.616089,433.022888 592.170898,428.711182 
	C593.545532,426.847076 595.130432,426.622162 597.265198,427.097015 
	C598.889160,427.950684 599.666321,429.148224 599.804504,430.441711 
	C600.326599,435.326538 603.846924,436.012909 607.667725,436.234528 
	C611.647888,436.465454 615.690979,436.302979 618.973572,439.195129 
	C619.481689,439.642761 620.224609,439.686676 620.880310,439.612671 
	C625.989502,439.035950 631.040771,439.784210 636.105774,440.342621 
	C631.052368,439.956085 626.453552,437.109741 621.114014,437.969849 
	C618.478210,438.394440 617.039856,436.128113 616.645874,433.552612 
	C616.240845,430.904541 616.273804,428.227631 616.769165,425.613831 
	C617.447449,422.034698 615.799072,420.733978 612.494019,420.648132 
	C609.672363,420.574860 606.846619,420.709167 603.652344,420.413635 
	C602.502747,420.202118 601.812744,419.882202 601.018677,419.033997 
	C600.817871,418.463593 600.821533,418.214172 601.064575,417.684967 
	C602.991272,416.578278 604.474915,415.520966 605.600586,413.524109 
	C608.135864,411.778534 608.263794,409.540924 607.999939,407.151337 
	C607.756958,404.950134 607.876221,402.854126 610.222168,401.179718 
	C613.067261,400.222168 615.506714,400.121765 618.097656,401.866272 
	C619.116028,403.412933 619.367126,404.891846 620.640381,405.920410 
	C623.161133,407.956696 623.700623,410.214752 620.759705,412.438446 
	C618.845825,413.885590 620.139954,414.683258 621.208069,415.912750 
	C624.779297,420.023499 629.455688,419.513214 634.090454,419.351410 
	C640.952881,419.111847 641.442871,419.566956 641.577576,426.391449 
	C641.597229,427.386536 641.685669,428.393127 641.578491,429.375519 
	C640.995911,434.717194 643.806885,437.723358 648.721313,439.755676 
z"/>
<path fill="#02A49A" opacity="1.000000" stroke="none" 
	d="
M648.654541,351.757568 
	C649.000000,354.041656 649.000000,356.083344 649.000000,358.562500 
	C643.067871,365.012085 644.731018,372.825653 644.199158,380.050171 
	C644.024414,382.423004 646.991394,383.038727 648.733154,384.756104 
	C649.000000,385.444458 649.000000,385.888885 649.000000,386.666687 
	C647.349121,388.658142 645.150024,388.601471 643.069946,388.840759 
	C639.338318,389.270050 635.716187,390.103821 631.856689,391.447052 
	C629.307007,386.944153 631.495544,380.294281 635.901123,377.937683 
	C637.109375,377.291351 639.221619,377.330139 638.578247,375.116272 
	C638.048218,373.292389 636.306946,372.804657 634.654541,372.461273 
	C632.708679,372.056854 631.910889,373.308563 631.584534,374.913849 
	C631.076538,377.412384 629.770203,379.156525 626.948669,380.050934 
	C624.202087,380.735413 621.746155,380.688202 619.315247,380.611053 
	C616.470886,380.520813 614.668335,381.674500 613.678772,384.725830 
	C611.742126,386.469513 610.021484,385.776978 608.358765,384.964203 
	C604.375000,383.016907 600.302185,383.324768 596.243408,384.521515 
	C590.061340,386.344299 588.378906,389.426758 589.740662,395.711578 
	C590.145630,397.580383 591.278748,398.538513 592.846130,399.264038 
	C594.503906,400.031494 596.248169,400.722198 596.583740,403.221863 
	C593.999207,406.676636 594.003479,410.442505 593.613525,414.456116 
	C591.632690,416.052399 590.643921,414.547394 589.983337,413.410828 
	C588.111206,410.189972 585.964050,410.214233 583.039551,412.442261 
	C580.281494,411.245392 580.944641,409.215057 581.231812,407.241882 
	C581.485779,405.496918 582.264648,403.562103 579.629456,402.354980 
	C577.642334,401.639496 575.840820,401.540192 574.017944,400.383850 
	C572.960388,397.086700 575.291565,396.977966 577.173462,396.562897 
	C583.151611,395.244507 583.837830,394.388611 583.283936,388.334625 
	C582.997437,385.203094 582.082581,382.215790 580.717651,378.993774 
	C580.276489,378.255005 580.079590,377.808380 579.823547,377.002289 
	C579.517578,375.033173 579.301392,373.415131 576.642944,373.682007 
	C571.346558,373.662750 566.422363,373.910797 561.110962,373.463318 
	C557.044189,372.426300 553.925415,370.723389 552.215332,367.093689 
	C551.519287,365.616455 550.230408,364.858307 548.685547,364.615784 
	C544.633240,363.979767 541.715271,361.676178 539.387695,358.460968 
	C536.965454,355.115082 534.003601,353.956116 529.610413,354.019409 
	C523.902222,354.101654 518.955872,355.073761 513.500977,357.089539 
	C509.412628,358.600342 503.524506,357.889313 498.095734,357.371857 
	C497.239410,356.469391 497.085022,355.684448 497.269836,354.439148 
	C498.102966,352.696442 499.315857,352.126343 501.136475,351.854919 
	C508.831970,352.025269 515.951843,351.593323 522.071045,346.814392 
	C524.145020,345.194611 526.805847,345.659271 529.236267,345.422333 
	C531.682678,345.183838 533.386353,344.369568 533.034058,341.087189 
	C533.229065,340.450714 533.337830,340.202728 533.701050,339.630981 
	C537.967041,336.808380 542.443115,336.931641 547.281738,337.151794 
	C548.727539,337.894867 549.194092,338.968475 549.705811,339.994080 
	C551.925293,344.442932 555.697815,345.861572 560.367126,345.358185 
	C563.624512,345.006927 566.659912,343.518463 570.013794,343.485931 
	C571.597107,343.470581 572.068176,342.063477 572.311829,340.697021 
	C572.570557,339.245941 572.562988,337.737061 573.468018,336.072418 
	C574.489075,335.061584 575.460938,334.871094 576.856934,334.879517 
	C579.442688,335.274048 581.612610,336.856964 584.259216,335.055603 
	C585.833801,334.648743 587.048584,334.660156 588.556641,335.296021 
	C589.517517,336.121002 589.970032,337.215851 589.373779,337.693512 
	C583.489868,342.407562 590.617798,346.827301 589.656982,351.436066 
	C589.467346,352.345612 590.803467,353.032501 591.755737,353.315735 
	C595.951782,354.563751 597.728943,357.765778 598.771118,361.659882 
	C599.203125,363.274170 599.908508,364.828705 601.124878,366.005646 
	C603.575867,368.377075 606.105530,369.510284 608.842041,365.739319 
	C610.734131,364.456085 612.577942,364.511200 614.396301,364.447235 
	C621.615845,364.193207 621.615906,364.194427 624.093750,357.644592 
	C625.933472,356.615936 627.709778,356.170654 629.065430,354.331940 
	C635.529663,351.965118 641.746033,350.477173 648.654541,351.757568 
z"/>
</svg>